<svg width="164" height="31" viewBox="0 0 164 31" fill="none" xmlns="http://www.w3.org/2000/svg">
<path d="M8.56755 24.3388C8.38299 24.3399 8.20002 24.3046 8.02918 24.2348C7.85833 24.165 7.70297 24.0621 7.57205 23.932C7.44114 23.8019 7.33723 23.6472 7.26633 23.4768C7.19544 23.3064 7.15894 23.1236 7.15895 22.9391V2.19329C7.15896 1.82125 7.01177 1.4643 6.74953 1.20039C6.48729 0.936483 6.13129 0.787023 5.75925 0.784668H1.40861C1.03575 0.787006 0.678821 0.936162 0.415161 1.19982C0.151501 1.46348 0.00233778 1.82043 0 2.19329V24.6954C0.051603 25.5874 0.403522 26.4358 0.99851 27.1025L3.17383 29.2778C3.83709 29.8714 4.68321 30.2205 5.57203 30.2674H20.5942C20.9647 30.2651 21.3194 30.1168 21.5814 29.8549C21.8434 29.5929 21.9916 29.2382 21.9939 28.8677V25.7474C21.9939 25.3753 21.8467 25.0184 21.5845 24.7545C21.3223 24.4905 20.9663 24.3411 20.5942 24.3388H8.56755Z" fill="#009BFA"/>
<path d="M29.2976 30.267C28.9035 30.2689 28.5138 30.1837 28.1564 30.0174L26.8816 29.4379L26.6052 29.322C26.4592 29.2505 26.3355 29.1405 26.2475 29.0038C26.1595 28.8671 26.1105 28.7089 26.1059 28.5464V24.802C26.101 24.674 26.135 24.5476 26.2035 24.4393C26.2719 24.3311 26.3716 24.2461 26.4893 24.1957L28.5487 23.1972C28.7798 23.0867 29.0325 23.0288 29.2887 23.0278C29.5507 23.0279 29.8094 23.0858 30.0465 23.1972L32.1059 24.1957C32.2236 24.2461 32.3233 24.3311 32.3917 24.4393C32.4602 24.5476 32.4942 24.674 32.4893 24.802V28.5464C32.4838 28.7098 32.4336 28.8686 32.3439 29.0054C32.2543 29.1422 32.1288 29.2518 31.9811 29.322L31.8117 29.3933L30.4387 30.0085C30.0821 30.1778 29.6924 30.2661 29.2976 30.267Z" fill="#009BFA"/>
<path d="M48.1921 0.784668H38.002C37.6307 0.789332 37.276 0.939512 37.0143 1.20292C36.7525 1.46634 36.6046 1.82196 36.6023 2.19329V24.6954C36.6507 25.5865 36.9995 26.435 37.5919 27.1025L39.7672 29.2778C40.4305 29.8714 41.2766 30.2205 42.1654 30.2674H42.3526C42.7247 30.2674 43.0816 30.1202 43.3455 29.858C43.6094 29.5957 43.7589 29.2397 43.7612 28.8677V20.6478C43.7612 20.2758 43.9084 19.9188 44.1707 19.6549C44.4329 19.391 44.7889 19.2416 45.1609 19.2392H48.6557C54.3793 19.2392 59.1846 15.1471 59.1846 9.56619C59.1846 4.61823 55.5383 0.784668 48.1921 0.784668ZM47.2203 13.6137H45.1877C44.8172 13.6114 44.4625 13.4632 44.2005 13.2012C43.9385 12.9392 43.7903 12.5845 43.788 12.214V7.56026C43.788 7.18821 43.9352 6.83127 44.1974 6.56736C44.4596 6.30345 44.8156 6.15402 45.1877 6.15166H47.2025C50.7686 6.15166 52.0524 7.61376 52.0524 9.60186C52.0257 12.0357 50.7864 13.6137 47.2203 13.6137Z" fill="#009BFA"/>
<path d="M78.7827 30.2673C69.6267 30.2673 63.2969 23.7057 63.2969 15.1114C63.2969 6.51706 69.6267 0 78.7827 0C87.9386 0 94.2328 6.52597 94.2328 15.1114C94.2328 23.6967 88.1615 30.2673 78.7827 30.2673ZM78.7827 6.35658C73.6207 6.35658 70.4291 10.3149 70.4291 15.1202C70.4291 19.9256 73.6207 24.0355 78.7827 24.0355C83.9446 24.0355 87.0917 19.9969 87.0917 15.1202C87.0917 10.2436 84.0427 6.32983 78.7827 6.32983V6.35658Z" fill="#009BFA"/>
<path d="M99.7526 0.784668C99.379 0.784668 99.0207 0.933072 98.7566 1.19724C98.4924 1.4614 98.344 1.81971 98.344 2.19329V24.7221C98.3921 25.615 98.7445 26.4645 99.3425 27.1292L101.482 29.2689C102.145 29.8651 102.991 30.2173 103.88 30.2674H104.103C104.288 30.2674 104.471 30.231 104.642 30.1602C104.813 30.0894 104.968 29.9856 105.099 29.8548C105.23 29.724 105.334 29.5687 105.405 29.3978C105.475 29.2269 105.512 29.0438 105.512 28.8588V2.19329C105.512 2.00831 105.475 1.82514 105.405 1.65424C105.334 1.48334 105.23 1.32804 105.099 1.19724C104.968 1.06644 104.813 0.962681 104.642 0.891891C104.471 0.821102 104.288 0.784668 104.103 0.784668H99.7526Z" fill="#009BFA"/>
<path d="M130.236 0.723198C129.863 0.725535 129.506 0.874692 129.243 1.13835C128.979 1.40201 128.83 1.75896 128.827 2.13182V15.0322C128.827 15.8078 128.346 16.0307 127.767 15.5225L110.685 0.82128C110.105 0.313111 109.624 0.535981 109.624 1.31161V24.6339C109.672 25.525 110.021 26.3735 110.614 27.041L112.789 29.2163C113.453 29.8081 114.299 30.1569 115.187 30.2059H115.419C115.79 30.2059 116.146 30.0585 116.409 29.796C116.671 29.5335 116.819 29.1774 116.819 28.8062V15.8078C116.819 15.0322 117.291 14.8182 117.888 15.3264C118.486 15.8345 134.346 29.4838 134.925 29.992C135.505 30.5001 135.986 30.2862 135.986 29.5105V2.13182C135.984 1.75896 135.835 1.40201 135.571 1.13835C135.308 0.874692 134.951 0.725535 134.578 0.723198H130.236Z" fill="#009BFA"/>
<path d="M141.507 0.784668C141.135 0.789291 140.779 0.939183 140.516 1.20235C140.253 1.46552 140.103 1.82114 140.098 2.19329V4.74304C140.1 5.1159 140.25 5.47285 140.513 5.73651C140.777 6.00017 141.134 6.14933 141.507 6.15166H147.061C147.246 6.15166 147.429 6.1881 147.6 6.25889C147.771 6.32968 147.926 6.43343 148.057 6.56423C148.188 6.69503 148.292 6.85031 148.362 7.0212C148.433 7.19211 148.47 7.37528 148.47 7.56026V24.6954C148.518 25.5882 148.87 26.4377 149.468 27.1025L151.643 29.2778C152.307 29.8714 153.153 30.2205 154.042 30.2674H154.229C154.599 30.2651 154.954 30.1168 155.216 29.8549C155.478 29.5929 155.626 29.2382 155.628 28.8677V7.56026C155.628 7.18821 155.776 6.83127 156.038 6.56736C156.3 6.30345 156.656 6.15402 157.028 6.15166H162.6C162.972 6.14931 163.328 5.99985 163.59 5.73594C163.853 5.47203 164 5.11509 164 4.74304V2.19329C163.998 1.82196 163.85 1.46634 163.588 1.20292C163.326 0.939512 162.972 0.789332 162.6 0.784668H141.507Z" fill="#009BFA"/>
</svg>
