<svg width="20" height="20" viewBox="0 0 20 20" fill="none" xmlns="http://www.w3.org/2000/svg">
<path d="M10 10.9998V14.4998M4.16667 7.1665H15.8333C16.7538 7.1665 17.5 7.9127 17.5 8.83317V16.6665C17.5 17.587 16.7538 18.3332 15.8333 18.3332H4.16667C3.24619 18.3332 2.5 17.587 2.5 16.6665V8.83317C2.5 7.9127 3.24619 7.1665 4.16667 7.1665Z" stroke="black" stroke-linecap="round" stroke-linejoin="round"/>
<path d="M5.8335 7.1665V5.83317C5.8335 4.7281 6.27248 3.66829 7.05388 2.88689C7.83529 2.10549 8.89509 1.6665 10.0002 1.6665C11.1052 1.6665 12.165 2.10549 12.9464 2.88689C13.7278 3.66829 14.1668 4.7281 14.1668 5.83317V7.1665" stroke="black" stroke-linecap="round" stroke-linejoin="round"/>
</svg>
